<mxfile host="app.diagrams.net" modified="2024-02-07T03:52:37.162Z" agent="Mozilla/5.0 (Windows NT 10.0; Win64; x64) AppleWebKit/537.36 (KHTML, like Gecko) Chrome/121.0.0.0 Safari/537.36" etag="IuPI4w2-CTQtlTUd0Vw7" version="23.1.1" type="github">
  <diagram name="Halaman-1" id="pQ7dxj2HkR_RaaSewff5">
    <mxGraphModel dx="1434" dy="772" grid="1" gridSize="10" guides="1" tooltips="1" connect="1" arrows="1" fold="1" page="1" pageScale="1" pageWidth="827" pageHeight="1169" math="0" shadow="0">
      <root>
        <mxCell id="0" />
        <mxCell id="1" parent="0" />
        <mxCell id="-35Jys_oy9Djpv06N0m9-2" value="" style="rounded=1;whiteSpace=wrap;html=1;" vertex="1" parent="1">
          <mxGeometry x="290" y="130" width="260" height="480" as="geometry" />
        </mxCell>
        <mxCell id="-35Jys_oy9Djpv06N0m9-3" value="pengunjung" style="shape=umlActor;verticalLabelPosition=bottom;verticalAlign=top;html=1;outlineConnect=0;" vertex="1" parent="1">
          <mxGeometry x="60" y="200" width="120" height="235" as="geometry" />
        </mxCell>
        <mxCell id="-35Jys_oy9Djpv06N0m9-5" value="pustakawan" style="shape=umlActor;verticalLabelPosition=bottom;verticalAlign=top;html=1;outlineConnect=0;" vertex="1" parent="1">
          <mxGeometry x="620" y="200" width="120" height="235" as="geometry" />
        </mxCell>
        <mxCell id="-35Jys_oy9Djpv06N0m9-6" value="detail buku" style="ellipse;whiteSpace=wrap;html=1;" vertex="1" parent="1">
          <mxGeometry x="325" y="410" width="190" height="80" as="geometry" />
        </mxCell>
        <mxCell id="-35Jys_oy9Djpv06N0m9-7" value="pencari buku" style="ellipse;whiteSpace=wrap;html=1;" vertex="1" parent="1">
          <mxGeometry x="325" y="320" width="190" height="80" as="geometry" />
        </mxCell>
        <mxCell id="-35Jys_oy9Djpv06N0m9-8" value="from pengunjung" style="ellipse;whiteSpace=wrap;html=1;" vertex="1" parent="1">
          <mxGeometry x="325" y="230" width="190" height="80" as="geometry" />
        </mxCell>
        <mxCell id="-35Jys_oy9Djpv06N0m9-9" value="laporan statistik" style="ellipse;whiteSpace=wrap;html=1;" vertex="1" parent="1">
          <mxGeometry x="325" y="504.5" width="190" height="80" as="geometry" />
        </mxCell>
        <mxCell id="-35Jys_oy9Djpv06N0m9-10" value="perpus digital" style="text;html=1;strokeColor=none;fillColor=none;align=center;verticalAlign=middle;whiteSpace=wrap;rounded=0;" vertex="1" parent="1">
          <mxGeometry x="380" y="160" width="80" height="30" as="geometry" />
        </mxCell>
        <mxCell id="-35Jys_oy9Djpv06N0m9-11" value="" style="endArrow=none;html=1;rounded=0;entryX=0.032;entryY=0.338;entryDx=0;entryDy=0;entryPerimeter=0;" edge="1" parent="1" source="-35Jys_oy9Djpv06N0m9-3" target="-35Jys_oy9Djpv06N0m9-7">
          <mxGeometry width="50" height="50" relative="1" as="geometry">
            <mxPoint x="390" y="420" as="sourcePoint" />
            <mxPoint x="440" y="370" as="targetPoint" />
            <Array as="points">
              <mxPoint x="250" y="330" />
            </Array>
          </mxGeometry>
        </mxCell>
        <mxCell id="-35Jys_oy9Djpv06N0m9-13" value="" style="endArrow=none;html=1;rounded=0;entryX=0.116;entryY=0.188;entryDx=0;entryDy=0;entryPerimeter=0;" edge="1" parent="1" source="-35Jys_oy9Djpv06N0m9-3" target="-35Jys_oy9Djpv06N0m9-8">
          <mxGeometry width="50" height="50" relative="1" as="geometry">
            <mxPoint x="275" y="310" as="sourcePoint" />
            <mxPoint x="325" y="260" as="targetPoint" />
            <Array as="points">
              <mxPoint x="230" y="230" />
            </Array>
          </mxGeometry>
        </mxCell>
        <mxCell id="-35Jys_oy9Djpv06N0m9-14" value="" style="endArrow=none;html=1;rounded=0;entryX=0.1;entryY=0.238;entryDx=0;entryDy=0;entryPerimeter=0;" edge="1" parent="1" source="-35Jys_oy9Djpv06N0m9-3" target="-35Jys_oy9Djpv06N0m9-6">
          <mxGeometry width="50" height="50" relative="1" as="geometry">
            <mxPoint x="200" y="400" as="sourcePoint" />
            <mxPoint x="440" y="370" as="targetPoint" />
          </mxGeometry>
        </mxCell>
        <mxCell id="-35Jys_oy9Djpv06N0m9-15" value="" style="endArrow=none;html=1;rounded=0;exitX=1;exitY=0.5;exitDx=0;exitDy=0;" edge="1" parent="1" source="-35Jys_oy9Djpv06N0m9-8" target="-35Jys_oy9Djpv06N0m9-5">
          <mxGeometry width="50" height="50" relative="1" as="geometry">
            <mxPoint x="390" y="420" as="sourcePoint" />
            <mxPoint x="600" y="270" as="targetPoint" />
            <Array as="points">
              <mxPoint x="580" y="230" />
            </Array>
          </mxGeometry>
        </mxCell>
        <mxCell id="-35Jys_oy9Djpv06N0m9-16" value="" style="endArrow=none;html=1;rounded=0;" edge="1" parent="1" source="-35Jys_oy9Djpv06N0m9-7" target="-35Jys_oy9Djpv06N0m9-5">
          <mxGeometry width="50" height="50" relative="1" as="geometry">
            <mxPoint x="390" y="420" as="sourcePoint" />
            <mxPoint x="440" y="370" as="targetPoint" />
          </mxGeometry>
        </mxCell>
        <mxCell id="-35Jys_oy9Djpv06N0m9-17" value="" style="endArrow=none;html=1;rounded=0;exitX=0.905;exitY=0.213;exitDx=0;exitDy=0;exitPerimeter=0;" edge="1" parent="1" source="-35Jys_oy9Djpv06N0m9-6" target="-35Jys_oy9Djpv06N0m9-5">
          <mxGeometry width="50" height="50" relative="1" as="geometry">
            <mxPoint x="390" y="420" as="sourcePoint" />
            <mxPoint x="440" y="370" as="targetPoint" />
            <Array as="points">
              <mxPoint x="580" y="380" />
            </Array>
          </mxGeometry>
        </mxCell>
        <mxCell id="-35Jys_oy9Djpv06N0m9-18" value="" style="endArrow=none;html=1;rounded=0;exitX=0.953;exitY=0.331;exitDx=0;exitDy=0;exitPerimeter=0;" edge="1" parent="1" source="-35Jys_oy9Djpv06N0m9-9" target="-35Jys_oy9Djpv06N0m9-5">
          <mxGeometry width="50" height="50" relative="1" as="geometry">
            <mxPoint x="390" y="420" as="sourcePoint" />
            <mxPoint x="440" y="370" as="targetPoint" />
          </mxGeometry>
        </mxCell>
      </root>
    </mxGraphModel>
  </diagram>
</mxfile>
